<svg width="45" height="28" viewBox="0 0 45 28" fill="none" xmlns="http://www.w3.org/2000/svg">
<path d="M21.1491 2.19114C21.8337 2.57103 21.8337 2.57103 22.5298 2.44274C23.4307 2.09849 24.2998 1.70947 25.1727 1.29973C28.8564 -0.429511 32.313 -0.264071 36.1608 1.03597C37.6559 1.66559 38.7962 2.46435 39.9869 3.55057C40.2012 3.73626 40.4155 3.92196 40.6363 4.11328C43.1764 6.44754 44.6341 9.30773 44.9962 12.7419C45.0787 17.2432 43.8272 20.7019 40.684 23.9812C37.6703 26.8196 34.0812 28.0407 29.9857 27.999C27.4025 27.8773 25.0623 27.0567 22.926 25.5949C22.1556 25.2681 22.1556 25.2681 21.1954 25.741C20.8328 25.9388 20.4702 26.1365 20.0966 26.3403C16.8736 28.0698 13.4358 28.3653 9.85739 27.5009C5.83313 25.9496 2.84945 23.3398 0.94709 19.4795C-0.188573 16.2918 -0.38768 12.0794 0.816377 8.87466C2.88353 4.68849 6.1273 1.97448 10.4674 0.347459C14.3323 -0.433469 17.8455 0.0689085 21.1491 2.19114ZM3.801 5.90962C1.1962 9.08106 0.94221 12.3922 1.21941 16.3508C1.54853 19.3928 3.33632 21.8677 5.47849 23.9812C8.87853 26.5041 12.0827 27.1078 16.2841 26.7515C18.142 26.2857 19.8118 25.5361 21.5127 24.6738C21.0513 23.6785 20.524 22.9106 19.8134 22.0767C17.5093 19.0415 16.9601 15.5808 17.3299 11.8613C17.7733 8.92706 19.0076 6.90918 20.8155 4.58942C21.0456 4.2466 21.2757 3.90378 21.5127 3.55057C15.4137 -0.676622 8.74063 0.762768 3.801 5.90962ZM23.2555 3.55057C23.5647 3.8791 23.8738 4.20764 24.1923 4.54613C27.1867 8.00727 27.6939 11.581 27.5008 15.9856C27.2741 18.6127 26.0886 20.7094 24.3952 22.6813C23.9121 23.3443 23.7508 23.8746 23.6041 24.6738C26.4723 26.8108 29.5001 27.0708 33.0155 26.7515C36.7413 25.994 39.7997 24.1101 41.9789 20.9864C43.7549 17.758 44.421 14.1141 43.591 10.5181C42.4324 6.93554 40.3862 4.56433 37.1384 2.66457C32.6612 0.397667 27.3251 0.381797 23.2555 3.55057Z" fill="#8363B6"/>
</svg>
