<svg width="45" height="51" viewBox="0 0 45 51" fill="none" xmlns="http://www.w3.org/2000/svg">
<path d="M22.351 0C23.9246 0.28714 23.9246 0.28714 24.5442 0.892418C25.2445 1.91445 25.8444 2.96093 26.4424 4.04607C26.9347 4.92471 27.4285 5.80255 27.9228 6.68009C28.2623 7.28661 28.5983 7.89515 28.9304 8.50571C29.7123 10.0911 29.7123 10.0911 31.0583 11.1463C31.9879 11.196 32.9189 11.2211 33.8498 11.2344C34.415 11.2461 34.9803 11.2581 35.5455 11.2702C36.4369 11.2875 37.3282 11.3029 38.2197 11.3139C39.08 11.3254 39.9398 11.3446 40.7999 11.3649C41.3153 11.3732 41.8308 11.3814 42.3619 11.39C43.6471 11.5639 43.6471 11.5639 44.4526 12.1229C45.0666 13.0628 44.9939 13.7942 44.7851 14.8726C44.0156 17.1082 42.4919 19.0582 41.1834 21.0102C39.8252 23.1285 39.8252 23.1285 39.3623 25.5587C40.0649 27.5756 41.0682 29.3214 42.1784 31.1417C42.3931 31.5034 42.6079 31.8652 42.8291 32.238C43.743 33.896 43.743 33.896 44.906 35.3704C45.0679 36.8212 45.1168 37.59 44.2353 38.7873C42.8867 39.8039 42.0763 39.7201 40.3983 39.6694C39.8471 39.6659 39.2959 39.6624 38.728 39.6588C37.8564 39.6449 36.986 39.6254 36.1149 39.5944C32.706 39.3707 32.706 39.3707 29.7428 40.7156C29.0811 41.6903 28.5942 42.647 28.1209 43.7236C27.8144 44.2608 27.5029 44.7952 27.1849 45.3257C26.7682 46.0706 26.356 46.8178 25.9449 47.5657C24.6089 49.9503 24.6089 49.9503 23.505 50.8238C22.5084 51.0587 22.5084 51.0587 21.4069 50.8238C19.5764 48.9107 18.3746 46.7748 17.1319 44.4545C16.7688 43.7817 16.4044 43.1094 16.0386 42.438C15.8806 42.1434 15.7225 41.8487 15.5597 41.5452C15.1138 40.7333 15.1138 40.7333 14.2732 39.9647C12.996 39.8366 12.996 39.8366 11.4965 39.8505C10.9331 39.842 10.3698 39.8333 9.80649 39.8244C8.91878 39.8149 8.03121 39.8081 7.14346 39.8056C6.28626 39.8016 5.42968 39.7875 4.57263 39.7722C3.80272 39.767 3.80272 39.767 3.01726 39.7618C1.44616 39.5086 0.935491 39.1438 0.00590796 37.8764C-0.126899 34.6759 2.00628 32.2225 3.69158 29.6464C4.02952 29.113 4.02952 29.113 4.37429 28.5688C4.58258 28.2506 4.79087 27.9324 5.00547 27.6045C5.58493 26.3264 5.61874 25.4847 5.46106 24.0937C4.97219 22.9792 4.97219 22.9792 4.25299 21.9271C4.00498 21.5319 3.75696 21.1367 3.50143 20.7296C2.9715 19.9087 2.44041 19.0886 1.90816 18.2693C1.66069 17.8741 1.41321 17.4789 1.15824 17.0718C0.927504 16.7159 0.696766 16.36 0.459035 15.9934C-0.116956 14.6101 0.0183031 13.8243 0.425535 12.3992C1.60941 11.2209 2.40021 11.4516 4.05629 11.435C4.62153 11.4245 5.18677 11.4139 5.75201 11.4032C6.6434 11.3912 7.53476 11.3812 8.42621 11.3733C9.28643 11.3643 10.1463 11.3478 11.0064 11.3306C11.5218 11.325 12.0373 11.3194 12.5684 11.3136C13.8248 11.2506 13.8248 11.2506 14.5863 10.634C15.22 9.74193 15.773 8.83649 16.3074 7.88167C16.5268 7.49376 16.7461 7.10585 16.9721 6.70619C17.1979 6.30213 17.4238 5.89807 17.6565 5.48177C18.106 4.68002 18.5567 3.87893 19.0088 3.0786C19.2073 2.7235 19.4059 2.3684 19.6104 2.00254C20.4276 0.664673 20.7788 0.331028 22.351 0ZM22.2461 4.88138C20.9472 6.76066 19.7059 8.6361 18.6268 10.6503C17.6145 12.5007 16.7639 13.8004 14.6928 14.4875C13.9188 14.5497 13.1429 14.5911 12.3669 14.6197C11.9165 14.6372 11.4662 14.6547 11.0023 14.6727C10.2976 14.6973 10.2976 14.6973 9.57864 14.7225C9.10398 14.7405 8.62932 14.7585 8.14027 14.7771C6.9675 14.8214 5.79469 14.8641 4.6218 14.9052C5.1617 16.7295 5.86629 18.1579 6.92975 19.7344C8.48344 22.0441 9.53402 23.6471 9.07398 26.5185C8.5821 28.28 7.63172 29.7915 6.69371 31.3505C6.30268 32.0142 5.91303 32.6787 5.52498 33.3441C5.35185 33.6335 5.17872 33.9228 5.00035 34.2209C4.55778 34.9394 4.55778 34.9394 4.6218 35.7881C5.05965 35.794 5.05965 35.794 5.50634 35.7999C6.83784 35.8224 8.16874 35.8574 9.49996 35.8925C9.95921 35.8984 10.4185 35.9044 10.8916 35.9105C13.5238 35.9899 15.2341 36.0779 17.2106 37.8764C17.9187 38.7003 17.9187 38.7003 18.4695 39.5731C18.7762 40.0577 18.7762 40.0577 19.0891 40.552C20.1906 42.4185 21.2321 44.3148 22.2461 46.2296C23.7827 44.4345 24.8897 42.4923 25.9859 40.4174C27.0554 38.4752 28.2219 37.1997 30.219 36.2058C30.9793 36.1418 31.7416 36.1016 32.504 36.0736C32.9557 36.0561 33.4074 36.0386 33.8727 36.0206C34.346 36.0042 34.8194 35.9877 35.307 35.9708C35.7836 35.9528 36.2601 35.9348 36.7511 35.9162C37.9307 35.8718 39.1104 35.8292 40.2901 35.7881C39.746 33.9458 39.026 32.501 37.9559 30.9067C36.1751 28.2425 35.486 26.0383 36.0938 22.8407C36.8874 21.1047 37.9462 19.5331 39.0033 17.9479C39.7271 16.8027 40.0269 16.173 40.2901 14.9052C39.9877 14.9057 39.6853 14.9061 39.3737 14.9066C37.9915 14.9015 36.6103 14.8774 35.2283 14.853C34.5147 14.8546 34.5147 14.8546 33.7867 14.8562C31.169 14.7955 29.3257 14.6709 27.4524 12.7447C26.4201 11.4103 25.6107 10.0074 24.8426 8.50979C23.8945 6.37097 23.8945 6.37097 22.2461 4.88138Z" fill="#8063B2"/>
</svg>
